# xmcd CD database file
#
# Track frame offsets:
#	150
#	40229
#	73921
#	88590
#	105244
#	116748
#	145341
#	168265
#	187424
#
# Disc length: 2833 seconds
#
# Revision: 0
# Processed by: cddbd v1.5.2PL0 Copyright (c) Steve Scherf et al.
# Submitted via: CDex 1.70beta2
#
DISCID=800b0f09
DTITLE=Various Artist - Greatest Sax Legends
DYEAR=1900
DGENRE=Jazz
TTITLE0=Dexter Gordon-Misty
TTITLE1=Don Byas-Don't Blame Me
TTITLE2=Bud Freeman- Sweet Sue
TTITLE3=Paul Gonsalves-Over The Rainbow
TTITLE4=Ben Webster-Teach Me Tonight
TTITLE5=Coleman Hawkins-Yesterdays
TTITLE6=Sonny Stitt- Lover Man
TTITLE7=Illionois Jacquet-Easy Living
TTITLE8=Johnny Griffin-Sophisticated Lady
EXTD=
EXTT0=
EXTT1=
EXTT2=
EXTT3=
EXTT4=
EXTT5=
EXTT6=
EXTT7=
EXTT8=
PLAYORDER=
